<?xml version="1.0" standalone="no"?>
<!DOCTYPE svg PUBLIC "-//W3C//DTD SVG 20010904//EN"
 "http://www.w3.org/TR/2001/REC-SVG-20010904/DTD/svg10.dtd">
<svg version="1.0" xmlns="http://www.w3.org/2000/svg"
 width="400.000000pt" height="400.000000pt" viewBox="0 0 400.000000 400.000000"
 preserveAspectRatio="xMidYMid meet">

<g transform="translate(0.000000,400.000000) scale(0.100000,-0.100000)"
fill="#000000" stroke="none">
<path d="M2755 3548 c-44 -16 -118 -44 -165 -62 l-85 -32 -5 -735 -5 -734 -23
-65 c-13 -36 -41 -93 -63 -127 -47 -72 -175 -198 -272 -267 -38 -27 -65 -52
-60 -57 4 -4 44 -30 88 -57 l80 -49 100 55 c242 131 395 279 456 441 46 123
48 160 49 964 0 416 -3 757 -7 756 -5 0 -44 -14 -88 -31z"/>
<path d="M2370 3408 c-14 -5 -65 -25 -115 -42 l-90 -33 -5 -634 c-6 -604 -7
-637 -27 -706 -22 -76 -46 -128 -95 -206 -24 -38 -33 -45 -44 -36 -28 23 -103
155 -124 217 -31 94 -37 216 -36 754 1 269 -1 488 -3 488 -2 0 -62 -21 -132
-47 l-129 -48 0 -520 c0 -308 4 -546 10 -585 17 -103 53 -163 165 -276 55 -55
135 -127 178 -159 l78 -58 34 25 c136 96 291 261 344 365 50 100 51 109 51
835 0 639 -1 678 -17 677 -10 0 -29 -5 -43 -11z"/>
<path d="M1320 3026 c-80 -29 -153 -56 -162 -61 -17 -7 -18 -35 -18 -384 0
-532 12 -647 81 -783 56 -111 200 -254 358 -354 33 -22 60 -43 60 -49 0 -5
-50 -54 -110 -107 -60 -54 -107 -98 -103 -98 3 0 31 14 62 31 228 125 242 132
273 119 16 -7 28 -18 26 -24 -2 -6 -74 -51 -159 -101 -86 -49 -155 -91 -154
-93 5 -4 244 47 389 84 l138 35 94 -31 c92 -29 287 -72 390 -85 l50 -6 -30 16
c-131 71 -305 174 -435 260 -343 224 -489 362 -541 512 -32 92 -38 217 -39
711 0 363 -3 462 -12 461 -7 -1 -78 -25 -158 -53z"/>
<path d="M2346 1349 l-38 -21 48 -25 c27 -14 78 -42 114 -62 107 -61 109 -55
13 39 -51 49 -94 90 -95 90 -2 -1 -20 -10 -42 -21z"/>
<path d="M1870 928 l0 -43 45 0 45 0 0 43 0 42 -45 0 -45 0 0 -42z"/>
<path d="M962 742 l3 -210 31 -39 c40 -50 91 -75 157 -75 69 -1 117 15 150 50
51 53 57 85 57 292 l0 191 -42 -3 -43 -3 -5 -195 c-3 -132 -9 -202 -18 -217
-28 -49 -156 -49 -184 0 -9 15 -15 85 -18 217 l-5 195 -43 3 -43 3 3 -209z"/>
<path d="M2100 870 l0 -50 -36 0 c-34 0 -35 -1 -32 -32 3 -29 7 -33 36 -36
l32 -3 0 -120 c0 -180 20 -213 128 -207 54 3 57 5 60 30 3 26 1 27 -45 30
l-48 3 -3 133 -3 132 51 0 50 0 0 35 0 35 -50 0 -50 0 0 50 0 50 -45 0 -45 0
0 -50z"/>
<path d="M1600 818 c-19 -5 -41 -15 -49 -21 -10 -9 -16 -7 -26 6 -8 11 -26 17
-49 17 l-36 0 0 -195 0 -195 45 0 44 0 3 152 3 153 54 12 c102 22 111 7 111
-193 l0 -124 40 0 40 0 0 154 c0 84 -5 167 -11 184 -18 53 -88 73 -169 50z"/>
<path d="M2459 821 c-46 -15 -67 -30 -91 -68 -20 -33 -23 -51 -23 -133 0 -159
31 -193 183 -198 118 -4 155 7 150 44 l-3 27 -102 -2 c-91 -2 -104 0 -122 18
-13 13 -21 34 -21 56 l0 35 130 0 130 0 0 48 c0 126 -111 209 -231 173z m115
-82 c19 -15 26 -30 26 -55 l0 -34 -85 0 c-85 0 -85 0 -85 26 0 73 84 110 144
63z"/>
<path d="M2845 811 c-64 -29 -80 -67 -80 -186 0 -114 11 -147 64 -182 27 -18
48 -23 100 -23 95 0 111 6 111 41 0 29 0 29 -65 29 -74 0 -111 14 -119 44 -3
11 -6 55 -6 97 0 109 11 121 113 120 l77 0 0 33 c0 31 -3 34 -37 40 -65 10
-117 6 -158 -13z"/>
<path d="M1870 625 l0 -195 45 0 45 0 0 195 0 195 -45 0 -45 0 0 -195z"/>
</g>
</svg>
